<svg width="24" height="24" viewBox="0 0 24 24" fill="none" xmlns="http://www.w3.org/2000/svg">
    <path d="M12.25 12C12.25 12.1989 12.329 12.3897 12.4697 12.5303C12.6103 12.671 12.8011 12.75 13 12.75C13.1989 12.75 13.3897 12.671 13.5303 12.5303C13.671 12.3897 13.75 12.1989 13.75 12C13.75 11.8011 13.671 11.6103 13.5303 11.4697C13.3897 11.329 13.1989 11.25 13 11.25C12.8011 11.25 12.6103 11.329 12.4697 11.4697C12.329 11.6103 12.25 11.8011 12.25 12V12ZM15.375 12C15.375 12.1989 15.454 12.3897 15.5946 12.5303C15.7353 12.671 15.9261 12.75 16.125 12.75C16.3239 12.75 16.5146 12.671 16.6553 12.5303C16.7959 12.3897 16.875 12.1989 16.875 12C16.875 11.8011 16.7959 11.6103 16.6553 11.4697C16.5146 11.329 16.3239 11.25 16.125 11.25C15.9261 11.25 15.7353 11.329 15.5946 11.4697C15.454 11.6103 15.375 11.8011 15.375 12ZM9.12505 12C9.12505 12.1989 9.20407 12.3897 9.34472 12.5303C9.48537 12.671 9.67613 12.75 9.87504 12.75C10.074 12.75 10.2647 12.671 10.4054 12.5303C10.546 12.3897 10.625 12.1989 10.625 12C10.625 11.8011 10.546 11.6103 10.4054 11.4697C10.2647 11.329 10.074 11.25 9.87504 11.25C9.67613 11.25 9.48537 11.329 9.34472 11.4697C9.20407 11.6103 9.12505 11.8011 9.12505 12V12ZM19.4562 9.2875C19.103 8.44844 18.5968 7.69531 17.9515 7.04844C17.3107 6.40531 16.55 5.8941 15.7125 5.54375C14.8531 5.18281 13.9406 5 13 5H12.9688C12.0219 5.00469 11.1047 5.19219 10.2422 5.56094C9.41185 5.91488 8.65828 6.427 8.0235 7.06875C7.38445 7.71406 6.88289 8.46406 6.53602 9.3C6.17665 10.1656 5.9954 11.0859 6.00009 12.0328C6.00539 13.1179 6.2621 14.187 6.75008 15.1562V17.5312C6.75008 17.7219 6.8258 17.9047 6.96059 18.0395C7.09538 18.1743 7.2782 18.25 7.46882 18.25H9.84535C10.8146 18.738 11.8837 18.9947 12.9688 19H13.0016C13.9375 19 14.8453 18.8188 15.7 18.4641C16.5333 18.1179 17.2911 17.6126 17.9312 16.9766C18.5765 16.3375 19.0843 15.5906 19.439 14.7578C19.8077 13.8953 19.9952 12.9781 19.9999 12.0312C20.0046 11.0797 19.8202 10.1562 19.4562 9.2875V9.2875ZM17.0953 16.1313C16 17.2156 14.5469 17.8125 13 17.8125H12.9734C12.0313 17.8078 11.0953 17.5734 10.2688 17.1328L10.1375 17.0625H7.93756V14.8625L7.86725 14.7312C7.42663 13.9047 7.19226 12.9688 7.18757 12.0266C7.18132 10.4688 7.77663 9.00625 8.8688 7.90469C9.95941 6.80312 11.4172 6.19375 12.975 6.1875H13.0016C13.7828 6.1875 14.5406 6.33906 15.2547 6.63906C15.9515 6.93125 16.5765 7.35156 17.114 7.88906C17.6499 8.425 18.0718 9.05156 18.364 9.74844C18.6671 10.4703 18.8187 11.2359 18.8156 12.0266C18.8062 13.5828 18.1952 15.0406 17.0953 16.1313V16.1313Z"
          fill="currentColor"/>
</svg>
