<svg width="100" height="32" viewBox="0 0 100 32" xmlns="http://www.w3.org/2000/svg">
    <path d="M18.3421 16.3975C18.3421 21.2928 14.3533 25.0175 9.17007 25.0175C3.39369 25.0175 -0.00201797 21.1829 -0.00201797 14.608C-0.00201797 6.68285 2.24005 2.81211 7.71269 2.26486L10.9189 1.93533C12.6697 1.75159 13.6766 1.38806 13.9762 0.109818H17.9345C17.6348 3.21355 15.884 4.82136 12.4537 5.22281L8.17333 5.6602C5.2281 5.95179 3.89306 7.92511 3.69942 10.1521C4.70631 8.87382 6.56926 7.74132 9.5512 7.74132C14.498 7.74132 18.3421 11.5042 18.3421 16.3975ZM14.39 16.3975C14.39 13.4755 12.1174 11.3204 9.17212 11.3204C6.19015 11.3204 3.9542 13.4755 3.9542 16.3975C3.9542 19.3195 6.19627 21.4385 9.17212 21.4385C12.1133 21.4385 14.3859 19.3195 14.3859 16.3975H14.39Z"
          fill="#05BD93"/>
    <path d="M19.828 7.48573H24.2265L29.7053 19.4293L35.1474 7.48573H39.3584L31.0852 25.4611C28.6984 30.538 28.1766 32 23.8902 32H21.7664V28.6046H23.295C24.9725 28.6046 25.8286 27.9116 26.8354 25.6827L27.506 24.1847L19.828 7.48573Z"
          fill="currentColor"/>
    <path d="M41.6331 7.48573H45.5833V12.6006C45.5833 14.6818 46.7389 15.4847 49.7208 15.4847C51.2457 15.4518 52.7659 15.3055 54.2682 15.0473V7.48573H58.2183V24.5423H54.2682V18.6264C52.7505 18.862 51.2197 19.008 49.6842 19.0638C44.3521 19.0638 41.6331 17.2384 41.6331 13.148V7.48573Z"
          fill="currentColor"/>
    <path d="M77.6753 2.04519C77.6753 0.915661 76.7405 0 75.588 0C74.4356 0 73.5008 0.915661 73.5008 2.04519V2.11909C73.5008 3.24862 74.4356 4.16428 75.588 4.16428C76.7405 4.16428 77.6753 3.24862 77.6753 2.11909V2.04519Z"
          fill="currentColor"/>
    <path d="M70.0706 2.04519C70.0706 0.915661 69.1361 0 67.9834 0C66.8307 0 65.8962 0.915661 65.8962 2.04519V2.11909C65.8962 3.24862 66.8307 4.16428 67.9834 4.16428C69.1361 4.16428 70.0706 3.24862 70.0706 2.11909V2.04519Z"
          fill="currentColor"/>
    <path d="M80.7306 15.8503C80.7306 10.8831 77.0781 7.01236 71.8965 7.01236C66.5669 7.01236 62.8023 10.919 62.8023 16C62.8023 21.2229 66.7544 25.0216 72.0845 25.0216C75.9221 25.0216 79.1653 22.9405 80.4696 19.5791H76.1894C75.3313 20.8574 73.8412 21.4425 72.0909 21.4425C69.4408 21.4425 67.3557 19.8348 66.9093 17.3882H80.6632C80.7412 16.8793 80.7632 16.3637 80.7306 15.8503ZM66.9766 14.2804C67.3129 11.9796 69.3633 10.4857 71.8965 10.4857C74.4306 10.4857 76.1469 11.9836 76.5561 14.2804H66.9766Z"
          fill="currentColor"/>
    <path d="M82.8178 7.48573H100V10.8811H93.3653V24.5404H89.4157V10.8811H82.8178V7.48573Z" fill="currentColor"/>
</svg>
