<svg width="36" height="36" viewBox="0 0 36 36" xmlns="http://www.w3.org/2000/svg">
    <path d="M18 36C27.9411 36 36 27.9411 36 18C36 8.05887 27.9411 0 18 0C8.05887 0 0 8.05887 0 18C0 27.9411 8.05887 36 18 36Z"
          fill="currentColor"/>
    <path d="M25.9658 21.9384C25.9833 22.3229 26.2042 23.4765 25.2482 24.5857C24.2923 25.6949 22.2595 26.2109 21.2959 25.9201C20.3323 25.6292 17.1503 24.7361 15.0749 22.6541C12.9993 20.5719 11.3165 18.3816 10.6288 16.7654C9.94103 15.1492 9.97935 14.1904 10.0175 13.7385C10.0557 13.2866 10.2766 11.1913 11.5802 10.2958C11.5802 10.2958 12.015 10 12.242 10H13.5105C13.6197 10.0272 13.7216 10.0817 13.8076 10.1589C13.8938 10.2361 13.962 10.3338 14.0065 10.4445C14.1594 10.8249 15.2292 13.5265 15.3125 13.7311C15.3957 13.9356 15.5991 14.4558 15.2659 14.9175C14.9327 15.3793 14.2365 16.242 14.2365 16.242C14.2365 16.242 13.9614 16.5081 14.1998 16.9338C14.4382 17.3594 15.2796 18.7603 16.3777 19.8194C17.4758 20.8784 18.8231 21.6574 19.4948 21.8956C20.1665 22.1338 20.3124 21.8135 20.5699 21.4601C20.8275 21.107 21.6276 20.0174 21.6276 20.0174C21.6276 20.0174 21.9034 19.5819 22.4453 19.849C22.9871 20.116 25.6258 21.4923 25.6258 21.4923C25.721 21.5136 25.8067 21.5693 25.8685 21.6502C25.9305 21.731 25.9648 21.832 25.9658 21.9368"
          fill="white"/>
</svg>
