<svg width="24" height="24" viewBox="0 0 24 24" fill="none" xmlns="http://www.w3.org/2000/svg">
    <path d="M18.9577 15.9481C18.6971 14.6319 17.2931 13.6885 15.6937 13.7533C14.0943 13.818 12.808 14.8734 12.705 16.2037C9.47887 16.1196 8.33343 15.4913 8.52048 14.2136C8.58984 13.7358 8.93662 13.4802 9.57345 13.3559C9.96017 13.2807 10.3889 13.2702 10.7777 13.2999C10.8135 13.3034 10.8513 13.3052 10.887 13.3087C11.1245 13.3559 11.3662 13.3962 11.6079 13.4277C12.3246 13.5257 13.0539 13.5747 13.7475 13.5432C15.6979 13.4557 17.0262 12.7398 17.0934 11.2206C17.1586 9.7486 15.9438 8.70544 13.985 8.00707C13.3566 7.78304 12.6903 7.60976 12.0241 7.47849C11.7235 7.41898 11.4713 7.37872 11.2843 7.35247C11.1182 6.024 9.78152 5.01058 8.1779 5.00008C6.57428 4.98958 5.21656 5.98199 5.0232 7.30871C4.82984 8.63542 5.86389 9.86937 7.42338 10.1774C8.98286 10.4855 10.5739 9.76961 11.1161 8.5129C11.3137 8.54266 11.5091 8.57591 11.7046 8.61442C12.2973 8.72994 12.89 8.88396 13.4364 9.08C14.9224 9.60858 15.7336 10.3069 15.6958 11.1786C15.6622 11.9592 14.9896 12.3198 13.6739 12.3793C13.096 12.4055 12.4633 12.3635 11.8391 12.2778C11.6647 12.2533 11.5049 12.2288 11.3641 12.2025C11.2822 12.1885 11.2254 12.1762 11.2002 12.171L11.135 12.1605C11.0888 12.1552 11.011 12.1465 10.9102 12.1377C10.3847 12.0975 9.81515 12.1115 9.26029 12.2183C8.10014 12.444 7.28677 13.0444 7.13544 14.0701C6.80547 16.2789 8.7874 17.3028 12.9362 17.3763C13.5478 18.6085 15.1725 19.2649 16.7109 18.8991C18.2515 18.5333 19.2183 17.2643 18.9577 15.9481V15.9481ZM8.14637 9.0835C7.91645 9.08349 7.68878 9.04576 7.47636 8.97247C7.26394 8.89919 7.07094 8.79178 6.90837 8.65638C6.7458 8.52097 6.61684 8.36023 6.52887 8.18332C6.44089 8.00642 6.39562 7.81681 6.39563 7.62534C6.39565 7.43386 6.44095 7.24426 6.52895 7.06736C6.61695 6.89046 6.74593 6.72973 6.90852 6.59435C7.07111 6.45896 7.26413 6.35157 7.47656 6.2783C7.68898 6.20504 7.91666 6.16734 8.14658 6.16735C8.61094 6.16737 9.05626 6.32101 9.38459 6.59447C9.71292 6.86793 9.89735 7.2388 9.89733 7.62551C9.8973 8.01222 9.71281 8.38307 9.38444 8.6565C9.05607 8.92992 8.61073 9.08352 8.14637 9.0835ZM15.8492 17.8314C15.6193 17.8314 15.3916 17.7937 15.1792 17.7204C14.9668 17.6471 14.7738 17.5397 14.6112 17.4043C14.4486 17.2689 14.3197 17.1082 14.2317 16.9312C14.1437 16.7543 14.0985 16.5647 14.0985 16.3733C14.0985 16.1818 14.1438 15.9922 14.2318 15.8153C14.3198 15.6384 14.4488 15.4777 14.6114 15.3423C14.774 15.2069 14.967 15.0995 15.1794 15.0262C15.3918 14.953 15.6195 14.9153 15.8494 14.9153C16.3138 14.9153 16.7591 15.0689 17.0874 15.3424C17.4158 15.6159 17.6002 15.9867 17.6002 16.3734C17.6001 16.7601 17.4157 17.131 17.0873 17.4044C16.7589 17.6778 16.3136 17.8314 15.8492 17.8314V17.8314Z"
          fill="currentColor"/>
</svg>
