<svg width="24" height="24" viewBox="0 0 24 24" fill="none" xmlns="http://www.w3.org/2000/svg">
    <path d="M19 16.1869C19 14.1009 17.6994 12.2991 15.8182 11.4598V8.36075C15.8182 8.0785 15.7128 7.80561 15.5179 7.59065L12.4872 4.21308C12.3599 4.07103 12.179 4 12 4C11.821 4 11.6401 4.07103 11.5128 4.21308L8.4821 7.59065C8.28854 7.80605 8.18218 8.0788 8.18182 8.36075V11.4598C6.30057 12.2991 5 14.1009 5 16.1869H8.11222C8.06648 16.3215 8.04261 16.4673 8.04261 16.6318C8.04261 17.0449 8.19375 17.4486 8.46818 17.7682C8.69219 18.0296 8.98886 18.2276 9.32528 18.3402C9.78466 19.3495 10.8287 20 12 20C12.5787 20 13.1395 19.8393 13.6188 19.5364C14.0881 19.2411 14.452 18.828 14.6727 18.3402C15.009 18.2283 15.3057 18.031 15.5298 17.7701C15.8046 17.4476 15.9547 17.0468 15.9554 16.6336C15.9554 16.4766 15.9335 16.3271 15.8937 16.1888H19V16.1869ZM16.9776 14.0449C17.1645 14.3178 17.3156 14.6112 17.425 14.9159H15.7386V12.8729C16.2348 13.1772 16.657 13.5766 16.9776 14.0449V14.0449ZM9.53409 11.4598V8.38878L12 5.64112L14.4659 8.38878V14.9159H9.53409V11.4598ZM6.575 14.9159C6.68437 14.6112 6.83551 14.3178 7.02244 14.0449C7.34659 13.5738 7.76818 13.1757 8.26136 12.8729V14.9159H6.575ZM14.3088 17.0879C14.2054 17.1439 14.0861 17.1664 13.9687 17.1514L13.581 17.1065L13.5253 17.4692C13.4179 18.1776 12.7616 18.7121 12 18.7121C11.2384 18.7121 10.5821 18.1776 10.4747 17.4692L10.419 17.1047L10.0312 17.1514C9.91336 17.1646 9.79408 17.1417 9.69119 17.086C9.51818 16.9925 9.4108 16.8187 9.4108 16.6299C9.4108 16.4318 9.52812 16.2673 9.70114 16.185H14.3009C14.4759 16.2692 14.5912 16.4336 14.5912 16.6299C14.5892 16.8206 14.4818 16.9963 14.3088 17.0879ZM11.0455 9.90654C11.0455 10.1445 11.146 10.3727 11.325 10.541C11.504 10.7092 11.7468 10.8037 12 10.8037C12.2532 10.8037 12.496 10.7092 12.675 10.541C12.854 10.3727 12.9545 10.1445 12.9545 9.90654C12.9545 9.66859 12.854 9.44039 12.675 9.27213C12.496 9.10387 12.2532 9.00935 12 9.00935C11.7468 9.00935 11.504 9.10387 11.325 9.27213C11.146 9.44039 11.0455 9.66859 11.0455 9.90654V9.90654Z"
          fill="currentColor"/>
</svg>
