<svg width="24" height="24" viewBox="0 0 24 24" fill="none" xmlns="http://www.w3.org/2000/svg">
    <path d="M15 11.5C15 11.2238 14.7816 11 14.5122 11H9.48781C9.21839 11 9 11.2238 9 11.5C9 11.7762 9.21839 12 9.48781 12H14.5122C14.7816 12 15 11.7762 15 11.5Z"
          fill="currentColor"/>
    <path d="M9.48453 14C9.21692 14 9 14.2238 9 14.5C9 14.7762 9.21692 15 9.48453 15H12.5155C12.7831 15 13 14.7762 13 14.5C13 14.2238 12.7831 14 12.5155 14H9.48453Z"
          fill="currentColor"/>
    <path d="M14.5122 8H9.48781C9.21839 8 9 8.22385 9 8.5C9 8.77615 9.21839 9 9.48781 9H14.5122C14.7816 9 15 8.77615 15 8.5C15 8.22385 14.7816 8 14.5122 8Z"
          fill="currentColor"/>
    <path d="M16.2857 5H7.71429C6.76751 5 6 5.69645 6 6.55556V17.4444C6 18.3036 6.76751 19 7.71429 19H16.2857C17.2325 19 18 18.3036 18 17.4444V6.55556C18 5.69645 17.2325 5 16.2857 5Z"
          stroke="currentColor" stroke-width="1"/>
</svg>
