<svg width="36" height="36" viewBox="0 0 36 36" fill="currentColor" xmlns="http://www.w3.org/2000/svg">
    <circle cx="18" cy="18" r="18" fill="currentColor"/>
    <path d="M18.1608 26.4271C15.3741 26.4271 13.143 24.9599 13.143 24.9599L9.71986 26.0483L10.8305 22.8191C10.8305 22.8191 9.05623 20.4263 9.05623 17.5574C9.05623 15.8032 9.59026 14.0883 10.5908 12.6297C11.5913 11.1711 13.0134 10.0342 14.6773 9.36291C16.3411 8.69159 18.172 8.51594 19.9383 8.85818C21.7046 9.20042 23.3271 10.0452 24.6005 11.2856C25.8739 12.5261 26.7412 14.1065 27.0925 15.8271C27.4439 17.5476 27.2635 19.331 26.5744 20.9517C25.8852 22.5725 24.7181 23.9577 23.2207 24.9323C21.7233 25.9069 19.9628 26.4271 18.1619 26.4271H18.1608ZM18.1619 7C12.1748 7.0005 7.32204 11.7275 7.32204 17.5574C7.32204 20.4514 8.89469 23.0381 8.89469 23.0381L7 28.6621L12.9392 26.813C12.9392 26.813 15.1441 28.1159 18.1608 28.1159C24.1474 28.1159 29.0001 23.3889 29.0001 17.5579C29.0001 11.727 24.1494 7.0005 18.1608 7.0005"
          fill="white"/>
    <path d="M23.7177 20.0628C23.7295 20.2973 23.8782 21.0009 23.2346 21.6774C22.5911 22.3539 21.2226 22.6686 20.5739 22.4912C19.9252 22.3138 17.7831 21.7691 16.3859 20.4993C14.9886 19.2294 13.8558 17.8935 13.3928 16.9078C12.9298 15.9221 12.9556 15.3373 12.9813 15.0617C13.007 14.7861 13.1557 13.5082 14.0333 12.962C14.0333 12.962 14.326 12.7816 14.4788 12.7816H15.3328C15.4063 12.7982 15.4749 12.8314 15.5328 12.8785C15.5908 12.9256 15.6367 12.9852 15.6667 13.0527C15.7696 13.2847 16.4898 14.9324 16.5459 15.0572C16.6019 15.1819 16.7388 15.4992 16.5145 15.7808C16.2902 16.0624 15.8215 16.5886 15.8215 16.5886C15.8215 16.5886 15.6363 16.7509 15.7968 17.0105C15.9573 17.2701 16.5237 18.1245 17.263 18.7704C18.0022 19.4163 18.9092 19.8914 19.3614 20.0367C19.8136 20.182 19.9118 19.9866 20.0852 19.7711C20.2586 19.5557 20.7972 18.8912 20.7972 18.8912C20.7972 18.8912 20.9829 18.6256 21.3477 18.7885C21.7124 18.9513 23.4888 19.7907 23.4888 19.7907C23.5529 19.8037 23.6106 19.8377 23.6522 19.887C23.6939 19.9363 23.717 19.9979 23.7177 20.0618"
          fill="white"/>
</svg>
